<?xml version="1.0" standalone="no"?>
<!DOCTYPE svg PUBLIC "-//W3C//DTD SVG 20010904//EN"
 "http://www.w3.org/TR/2001/REC-SVG-20010904/DTD/svg10.dtd">
<svg version="1.0" xmlns="http://www.w3.org/2000/svg"
 width="512.000000pt" height="512.000000pt" viewBox="0 0 512.000000 512.000000"
 preserveAspectRatio="xMidYMid meet">
<metadata>
Created by potrace 1.14, written by Peter Selinger 2001-2017
</metadata>
<g transform="translate(0.000000,512.000000) scale(0.100000,-0.100000)"
fill="#000000" stroke="none">
<path d="M2238 4379 c-15 -4 -29 -4 -32 -1 -3 3 -6 0 -6 -6 0 -7 -7 -12 -16
-12 -37 0 -120 -66 -179 -141 -98 -125 -140 -362 -102 -565 8 -38 13 -79 12
-91 -1 -12 2 -20 5 -18 7 5 50 -102 50 -124 0 -6 4 -11 9 -11 9 0 27 -40 22
-48 -1 -2 5 -9 15 -16 11 -8 14 -18 9 -26 -5 -8 -4 -11 2 -7 6 4 16 0 23 -8 7
-8 9 -15 5 -15 -4 0 16 -22 44 -48 47 -44 67 -73 39 -56 -7 4 -8 3 -4 -4 4 -6
13 -9 20 -6 7 3 19 -2 26 -11 7 -8 18 -15 24 -15 7 0 22 -9 34 -20 12 -12 22
-18 22 -15 0 3 10 0 23 -7 26 -14 29 -15 63 -17 17 -1 23 -5 18 -13 -5 -9 -2
-9 9 1 9 7 17 9 17 4 0 -10 64 -8 82 3 7 5 8 2 3 -7 -8 -12 -6 -12 8 0 9 7 24
11 32 7 8 -3 15 -1 15 4 0 4 12 11 28 15 15 3 51 24 80 46 29 22 58 36 64 33
7 -4 8 -3 4 4 -11 17 16 53 30 41 9 -8 11 -5 7 10 -3 13 -1 21 6 21 7 0 9 -5
5 -12 -5 -9 -2 -9 9 1 18 14 22 23 9 18 -4 -1 -8 1 -9 5 -3 10 39 101 50 109
5 3 8 10 7 15 0 5 2 18 6 29 3 11 5 24 5 29 -1 5 1 16 5 25 7 16 13 59 17 121
2 20 7 42 12 49 5 9 4 12 -3 7 -8 -5 -11 11 -9 54 1 33 -1 60 -4 60 -3 0 -6 6
-7 13 -2 38 -25 140 -32 147 -3 3 -13 30 -24 60 -10 30 -24 58 -30 62 -8 5 -7
14 3 30 9 16 10 19 1 11 -10 -10 -19 -3 -42 33 -15 25 -26 49 -23 55 3 5 -1 6
-9 3 -9 -3 -16 -2 -16 3 0 12 -87 103 -99 103 -5 0 -18 11 -29 25 -11 13 -22
22 -24 19 -3 -3 -21 4 -41 15 -56 31 -178 47 -239 30z"/>
<path d="M2573 4345 c0 -8 4 -12 9 -9 5 3 6 10 3 15 -9 13 -12 11 -12 -6z"/>
<path d="M2610 4300 c0 -5 5 -10 11 -10 5 0 7 5 4 10 -3 6 -8 10 -11 10 -2 0
-4 -4 -4 -10z"/>
<path d="M2816 4247 c3 -10 9 -15 12 -12 3 3 0 11 -7 18 -10 9 -11 8 -5 -6z"/>
<path d="M2690 4240 c0 -5 5 -10 11 -10 5 0 7 5 4 10 -3 6 -8 10 -11 10 -2 0
-4 -4 -4 -10z"/>
<path d="M2660 4226 c0 -2 8 -10 18 -17 15 -13 16 -12 3 4 -13 16 -21 21 -21
13z"/>
<path d="M2770 4199 c0 -5 5 -7 10 -4 6 3 10 8 10 11 0 2 -4 4 -10 4 -5 0 -10
-5 -10 -11z"/>
<path d="M2734 4158 c-4 -7 -4 -10 1 -6 4 4 15 2 24 -5 14 -11 14 -10 2 6 -16
20 -18 21 -27 5z"/>
<path d="M2786 4141 c-3 -4 4 -7 14 -6 27 2 33 10 10 12 -11 1 -22 -2 -24 -6z"/>
<path d="M2730 4136 c0 -2 8 -10 18 -17 15 -13 16 -12 3 4 -13 16 -21 21 -21
13z"/>
<path d="M2913 4085 c0 -8 4 -12 9 -9 5 3 6 10 3 15 -9 13 -12 11 -12 -6z"/>
<path d="M2780 4026 c0 -2 9 -6 20 -9 11 -3 18 -1 14 4 -5 9 -34 13 -34 5z"/>
<path d="M2887 4019 c7 -7 15 -10 18 -7 3 3 -2 9 -12 12 -14 6 -15 5 -6 -5z"/>
<path d="M2854 4000 c0 -13 4 -16 10 -10 7 7 7 13 0 20 -6 6 -10 3 -10 -10z"/>
<path d="M3392 4009 c-102 -13 -222 -92 -305 -198 -47 -61 -100 -148 -103
-170 -2 -8 -6 -17 -11 -20 -4 -3 -9 -13 -10 -21 -1 -8 -8 -33 -16 -55 -8 -22
-18 -56 -22 -75 -3 -19 -8 -46 -11 -60 -3 -14 -5 -76 -5 -137 0 -119 14 -193
57 -297 27 -67 27 -66 17 -65 -34 6 -43 -3 -43 -39 0 -21 -6 -44 -12 -51 -10
-11 -10 -13 0 -7 8 5 12 -3 12 -29 0 -20 -4 -34 -10 -30 -5 3 -7 13 -4 23 5
15 5 16 -5 1 -10 -16 -14 -16 -47 1 -20 11 -43 27 -51 37 -14 17 -14 17 -9 -2
5 -18 5 -18 -6 -4 -7 9 -18 14 -24 12 -7 -2 -18 3 -27 11 -8 8 -18 12 -22 8
-4 -4 -2 4 5 17 9 19 9 25 0 31 -7 4 -10 12 -7 17 3 5 -4 9 -16 8 -12 -1 -28
5 -35 14 -11 14 -11 14 -6 -2 6 -17 5 -18 -14 -6 -11 7 -18 17 -15 23 3 5 1 6
-6 2 -9 -6 -9 -11 -1 -21 8 -10 5 -13 -14 -11 -13 0 -22 4 -19 9 2 4 -1 7 -6
7 -6 0 -11 -5 -11 -10 0 -7 -6 -7 -20 0 -12 6 -20 7 -20 1 0 -10 -19 -9 -37 2
-8 5 -13 3 -13 -3 0 -6 -4 -9 -10 -5 -5 3 -7 13 -4 23 5 16 5 16 -6 0 -6 -10
-21 -18 -33 -18 -50 -1 -63 0 -82 4 -11 2 -23 5 -26 5 -3 1 -16 10 -28 20 -22
19 -22 20 -3 18 12 0 18 -5 15 -11 -4 -5 1 -7 11 -3 11 5 15 3 10 -5 -4 -6 -3
-8 4 -4 6 3 13 2 17 -4 3 -5 11 -10 16 -10 6 0 8 4 4 9 -3 6 3 14 12 20 16 9
16 10 -4 8 -12 0 -19 -5 -17 -9 8 -12 -9 -9 -28 6 -10 7 -18 19 -18 27 0 11
-2 11 -10 -1 -8 -13 -10 -12 -11 5 -1 11 -1 23 -1 27 1 3 -6 12 -15 20 -14 11
-16 11 -8 -1 6 -11 4 -13 -11 -8 -15 6 -14 4 4 -11 21 -17 22 -18 3 -18 -11 0
-17 4 -15 8 3 4 0 8 -5 8 -15 0 -14 27 2 34 6 3 2 3 -9 1 -13 -4 -29 1 -39 12
-20 20 -46 27 -122 32 -7 1 -10 8 -6 19 3 11 -1 9 -12 -6 -9 -13 -23 -21 -31
-18 -8 3 -14 2 -14 -3 0 -7 -35 -22 -48 -20 -2 0 -12 -10 -23 -22 -20 -24 -26
-10 -9 22 6 10 7 19 2 19 -5 0 -8 10 -7 21 2 29 -14 129 -23 143 -7 11 -11 28
-14 59 -1 9 -5 17 -9 17 -4 0 -12 14 -19 31 -11 26 -11 33 1 41 11 8 10 9 -3
4 -13 -4 -28 10 -58 55 -23 32 -38 64 -34 71 4 7 3 8 -5 4 -13 -8 -63 38 -53
48 3 3 -3 6 -12 6 -12 0 -16 5 -12 16 3 9 2 12 -5 9 -13 -8 -41 14 -33 26 3 5
1 8 -4 7 -13 -4 -92 44 -92 54 0 5 -7 8 -15 8 -7 0 -18 6 -22 13 -4 6 -12 12
-18 13 -24 1 -65 17 -65 25 0 5 -13 9 -29 9 -17 0 -32 4 -36 10 -3 5 -12 7
-19 4 -7 -3 -20 2 -29 10 -17 17 -32 22 -23 7 3 -5 -19 -7 -49 -4 -151 12
-303 -80 -357 -217 -28 -72 -29 -208 -3 -295 35 -118 106 -234 204 -332 50
-51 58 -63 46 -73 -18 -15 -38 -3 -32 19 3 13 -2 17 -24 15 -16 -1 -29 3 -29
9 0 8 -3 8 -8 2 -4 -5 -14 -10 -22 -10 -8 0 -18 5 -22 10 -5 6 -8 6 -8 -2 0
-7 -19 -11 -53 -11 -94 1 -87 7 -87 -82 l0 -80 -27 -1 c-16 -1 -31 -1 -35 0
-20 2 -139 -45 -183 -74 -57 -36 -109 -106 -126 -169 -32 -116 26 -268 139
-371 25 -22 51 -44 58 -48 8 -4 14 -15 14 -22 0 -8 3 -15 8 -16 29 -3 47 -9
50 -19 2 -5 8 -8 13 -4 5 3 9 0 9 -6 0 -6 5 -8 12 -4 8 5 9 2 4 -11 -5 -15 -4
-16 9 -5 13 11 19 8 17 -11 -1 -3 11 -4 25 -1 17 3 24 1 19 -6 -4 -7 1 -10 14
-7 28 5 33 -9 17 -47 -17 -43 -15 -85 5 -124 l17 -30 -37 -20 c-58 -30 -82
-61 -82 -107 0 -21 44 -76 56 -69 2 1 6 1 9 1 20 -5 32 -4 49 4 14 7 17 6 10
-5 -4 -7 8 2 27 19 18 18 38 32 42 30 5 -1 17 14 28 33 10 19 18 29 19 23 0
-7 5 -13 11 -13 6 0 9 6 6 14 -6 14 16 17 29 4 3 -4 17 -4 30 -2 13 2 24 0 24
-6 0 -5 5 -10 11 -10 5 0 7 5 3 12 -5 7 -3 8 7 2 8 -5 25 -10 39 -12 14 -2 27
-8 29 -13 1 -6 9 -2 16 8 11 15 17 16 33 6 15 -9 19 -8 19 3 0 8 -4 14 -9 14
-4 0 -8 5 -8 10 0 7 6 7 19 0 15 -7 22 -7 27 2 4 7 3 10 -1 5 -5 -4 -18 -1
-29 6 -37 24 -86 38 -86 24 0 -9 -2 -9 -8 -1 -4 6 -15 10 -24 9 -12 -2 -15 2
-10 13 5 15 4 16 -14 2 -18 -14 -18 -14 -5 3 13 17 13 18 -4 15 -10 -1 -19 3
-21 10 -1 7 0 8 2 3 3 -5 14 -7 24 -4 11 3 17 10 13 16 -3 5 -1 7 5 3 6 -3 13
-2 17 4 4 6 11 8 16 5 5 -4 9 -1 9 4 0 6 6 11 14 11 8 0 17 6 20 13 3 6 3 -3
0 -21 -2 -17 -1 -31 3 -30 5 2 9 -1 10 -6 1 -5 7 -12 14 -17 8 -4 10 -11 6
-16 -5 -4 -11 -3 -15 2 -9 13 -42 18 -42 7 0 -9 15 -13 53 -12 49 0 57 2 52
11 -4 5 -2 9 4 9 5 0 11 -5 13 -12 3 -8 9 -8 24 1 16 10 16 12 1 7 -10 -3 -20
0 -23 9 -5 12 -9 12 -28 0 -22 -15 -36 -11 -36 8 0 6 3 7 7 4 3 -4 15 1 26 10
17 16 19 16 28 1 6 -10 19 -15 37 -13 15 2 33 -2 40 -8 9 -7 16 -6 25 3 9 10
9 11 0 6 -7 -4 -23 0 -35 8 -12 9 -17 16 -10 16 19 0 27 -4 24 -13 -1 -4 6 -7
15 -5 14 2 17 -3 15 -21 l-2 -23 20 23 21 24 -16 -33 c-15 -32 -18 -33 -34
-17 -16 13 -19 14 -24 2 -3 -9 1 -14 10 -13 24 2 25 -18 3 -42 -12 -12 -19
-22 -16 -22 3 0 -7 -26 -21 -57 -38 -86 -46 -127 -46 -248 -1 -89 4 -122 22
-175 45 -130 146 -257 251 -318 25 -14 47 -30 48 -34 2 -4 10 -8 18 -8 8 0 34
-9 56 -20 23 -11 48 -20 55 -20 7 0 13 -3 13 -7 0 -5 10 -9 23 -10 23 -2 62
-10 62 -13 0 -2 31 -8 80 -16 55 -9 357 -11 417 -4 31 4 48 3 48 -4 0 -6 4 -5
9 3 5 8 16 11 24 8 9 -3 17 -2 19 3 2 4 24 11 51 14 26 4 57 10 70 15 12 4 34
8 49 7 14 -1 24 2 22 6 -3 4 2 8 11 8 9 0 51 12 93 26 42 15 85 26 96 26 10
-1 15 2 12 5 -3 4 24 18 61 33 38 15 88 36 113 47 112 51 142 62 156 56 9 -3
14 0 12 8 -2 8 7 15 20 17 12 2 22 7 22 12 0 5 9 11 20 15 10 3 52 24 92 47
72 40 81 45 145 84 18 10 33 23 33 27 0 5 5 5 10 2 6 -3 10 -2 10 3 0 5 19 22
42 38 23 16 52 39 65 52 13 13 28 20 33 17 6 -4 9 -1 8 7 -2 7 3 12 10 10 8
-1 11 2 8 7 -3 5 7 20 23 34 17 14 27 28 24 31 -6 6 13 10 30 7 5 -1 5 3 2 9
-9 14 24 52 38 43 6 -3 7 -1 3 5 -9 15 18 55 29 44 5 -4 5 -2 2 4 -7 12 31 94
44 94 4 0 5 8 2 18 -6 14 -4 15 8 5 12 -10 15 -8 15 7 0 10 -4 16 -9 13 -5 -3
-7 0 -5 8 3 8 11 13 18 11 11 -2 11 0 1 11 -9 12 -8 16 4 21 8 3 15 11 15 18
0 9 -3 8 -10 -2 -6 -9 -10 -10 -10 -3 0 6 4 14 9 18 6 3 8 14 6 25 -2 12 0 18
5 15 5 -3 7 -14 5 -23 -2 -10 6 -24 17 -31 11 -7 17 -8 13 -2 -3 6 -1 11 5 11
7 0 9 8 5 23 l-7 22 21 -22 c23 -25 41 -32 22 -10 -6 8 -8 17 -4 20 9 10 25 9
19 -1 -7 -12 12 -38 21 -29 4 5 1 12 -6 16 -9 6 -10 11 -2 15 6 4 11 2 11 -5
0 -8 5 -8 16 2 14 11 18 10 30 -6 12 -17 14 -17 14 -2 0 9 5 17 11 17 5 0 7
-5 3 -12 -4 -7 -3 -8 4 -4 6 4 9 13 6 21 -4 8 -11 12 -18 8 -17 -12 -86 -11
-79 0 3 6 1 7 -5 3 -44 -27 -66 -1 -28 31 21 18 21 18 3 -4 -10 -12 -14 -24
-9 -27 6 -3 13 1 16 10 5 14 8 14 27 0 14 -9 29 -12 43 -7 11 5 29 7 38 6 10
-2 20 5 23 16 4 10 11 19 17 19 6 0 6 -6 -2 -15 -7 -9 -10 -18 -6 -22 12 -12
86 -10 97 4 6 7 18 13 25 13 8 0 14 4 14 8 0 5 11 15 25 22 19 10 27 10 39 1
12 -10 14 -8 11 16 -2 15 1 33 6 39 6 7 1 10 -14 8 -12 -1 -22 -3 -22 -4 0 -1
-12 -4 -27 -6 -23 -2 -25 0 -15 10 6 8 18 11 24 9 7 -3 13 0 13 6 0 6 -3 10
-7 10 -19 -3 -33 2 -33 12 0 5 5 7 12 3 6 -4 8 -3 5 3 -3 5 -21 8 -39 6 -18
-2 -39 -4 -45 -5 -7 -1 -13 -4 -13 -8 0 -3 -13 -14 -30 -23 l-30 -18 0 25 c0
13 -5 26 -11 28 -5 2 -11 11 -13 20 -1 10 -5 20 -9 24 -3 4 -4 -3 -2 -15 2
-13 -1 -21 -8 -19 -13 3 -77 -33 -77 -43 0 -4 -11 -14 -24 -23 -24 -15 -24
-15 -20 10 3 16 1 23 -6 19 -5 -3 -7 0 -4 8 4 10 -1 15 -13 14 -16 -2 -18 7
-19 71 -2 66 0 74 20 83 l21 9 -22 -3 c-12 -1 -23 1 -23 5 -1 4 -8 31 -16 60
-8 29 -17 61 -19 72 -2 10 -12 30 -22 45 -9 14 -16 32 -15 40 2 7 -1 10 -6 7
-6 -3 -16 7 -24 24 -7 16 -16 30 -20 30 -4 0 -16 10 -27 22 -17 17 -18 24 -8
37 10 14 10 14 -4 3 -14 -10 -19 -10 -31 1 -8 8 -24 18 -36 21 -12 4 -22 11
-22 16 0 5 8 7 18 4 10 -4 13 -3 6 3 -6 4 -10 16 -9 25 2 11 -2 15 -13 11 -10
-4 -13 -2 -8 5 5 8 2 10 -10 5 -14 -5 -13 -8 6 -18 17 -9 20 -14 9 -20 -8 -5
-14 -4 -17 3 -2 7 -8 10 -13 6 -5 -3 -9 0 -9 6 0 6 -3 9 -8 6 -4 -2 -18 2 -32
10 -14 7 -20 13 -14 14 6 0 11 7 11 15 0 19 -7 19 -22 -1 -10 -14 -11 -11 -11
15 0 21 3 28 10 21 5 -5 15 -10 20 -10 6 1 1 9 -12 19 -15 13 -18 21 -10 24 9
4 10 8 2 14 -6 4 -11 16 -11 25 0 13 4 15 13 7 7 -6 19 -8 26 -4 7 4 4 -1 -6
-9 -11 -9 -15 -16 -8 -16 6 0 9 -9 7 -20 -2 -11 0 -18 5 -15 5 3 7 -4 5 -15
-2 -11 0 -18 4 -15 5 2 8 -3 8 -13 0 -41 2 -43 28 -26 14 9 25 21 25 26 0 5
-7 2 -16 -6 -20 -20 -31 -20 -31 -1 0 9 6 14 13 11 25 -10 24 25 -2 47 -25 22
-25 24 -8 37 16 13 17 13 11 -2 -3 -10 -1 -20 5 -24 7 -4 8 -3 4 4 -4 7 -2 12
5 12 8 0 7 5 -2 17 -12 15 -12 16 3 10 10 -3 20 -3 22 2 3 4 0 8 -7 9 -37 3
-78 22 -48 22 7 0 11 6 8 13 -3 8 1 14 9 14 8 0 13 -6 10 -13 -3 -8 -1 -16 3
-18 5 -3 8 3 7 14 0 11 -5 20 -9 19 -4 0 -20 7 -34 16 -14 9 -22 12 -19 6 4
-6 2 -11 -4 -11 -7 0 -9 7 -6 15 3 9 -1 18 -8 21 -12 4 -10 10 5 25 17 17 18
23 7 36 -11 14 -11 15 2 11 8 -2 15 -16 15 -31 1 -14 -2 -24 -5 -22 -4 2 -7
-2 -7 -9 0 -8 7 -12 15 -8 10 3 13 1 8 -6 -11 -18 15 -26 31 -9 14 13 14 18 1
36 -8 11 -17 19 -19 17 -2 -3 -9 6 -16 20 -13 27 1 33 16 7 6 -10 10 -13 10
-8 0 6 -6 18 -13 28 -13 17 -15 17 -34 1 -12 -10 -19 -25 -16 -39 2 -13 -1
-22 -10 -22 -28 0 0 53 74 140 8 10 15 21 15 25 1 4 11 23 23 42 12 19 24 46
27 60 4 16 17 31 33 38 25 10 25 11 2 5 -21 -5 -23 -4 -13 9 7 8 10 18 6 21
-9 10 6 8 26 -2 13 -7 18 -6 18 4 0 7 -6 11 -13 8 -6 -2 -14 0 -18 5 -7 11 4
53 13 48 4 -3 6 8 5 25 -1 16 2 32 7 35 5 3 6 10 3 16 -5 7 -1 9 9 5 9 -3 19
-2 22 4 4 5 3 9 -2 8 -30 -5 -42 16 -19 33 5 3 11 17 13 30 2 18 1 20 -7 8 -7
-12 -10 -8 -10 15 0 20 3 26 9 17 7 -11 9 -11 14 2 4 9 1 15 -5 13 -19 -4 -20
21 -1 26 17 4 17 5 1 6 -10 0 -18 6 -18 12 0 5 6 7 13 3 9 -6 9 -5 0 7 -7 9
-12 31 -12 50 1 45 -23 141 -51 208 -20 46 -22 56 -10 75 12 19 12 20 -4 7 -9
-8 -18 -12 -20 -10 -1 2 -16 22 -32 44 -24 34 -54 65 -100 103 -6 5 -27 15
-47 23 -20 7 -34 15 -32 18 2 3 -9 7 -23 8 -15 1 -45 3 -67 5 -22 2 -64 1 -93
-3z m-1095 -1025 c-3 -3 -12 -4 -19 -1 -8 3 -5 6 6 6 11 1 17 -2 13 -5z
m-1107 -103 c0 -5 9 -13 20 -16 25 -8 26 -31 1 -47 -10 -6 -17 -17 -14 -23 2
-7 -3 -15 -12 -19 -9 -3 -13 -10 -10 -16 3 -6 0 -13 -8 -16 -9 -3 -13 -14 -10
-27 4 -18 2 -17 -10 5 -26 47 -29 54 -15 37 7 -9 19 -14 26 -12 8 3 5 10 -9
22 -23 19 -36 103 -14 95 7 -3 18 2 25 11 14 17 30 20 30 6z m2547 -94 c-2 -6
-10 -12 -18 -15 -11 -3 -11 -2 1 7 8 6 10 11 4 11 -7 0 -14 7 -18 15 -5 13 -2
14 15 5 11 -6 19 -16 16 -23z m-55 -46 c15 8 19 8 14 0 -4 -6 -2 -11 5 -11 8
0 9 -3 0 -14 -8 -10 -8 -16 2 -25 8 -6 17 -8 20 -4 4 3 7 4 7 1 0 -3 -10 -13
-22 -24 -19 -15 -20 -16 -9 -1 7 9 11 18 7 18 -3 1 -9 2 -13 3 -5 1 -17 7 -28
13 -13 8 -15 12 -5 13 11 0 11 3 2 12 -7 7 -12 17 -11 23 0 5 3 4 6 -2 3 -10
10 -10 25 -2z m-432 -25 c0 3 6 2 13 -3 6 -6 34 -8 62 -6 67 4 83 -2 61 -26
-9 -9 -13 -21 -9 -25 4 -4 -4 -3 -17 1 -14 5 -47 8 -75 7 -27 0 -44 1 -37 3
20 8 13 18 -13 19 -21 2 -24 -1 -14 -12 8 -10 8 -14 0 -14 -6 0 -11 5 -11 11
0 5 -6 7 -12 3 -9 -5 -8 -2 1 9 9 11 22 15 35 12 20 -6 20 -6 2 9 -16 13 -22
13 -35 3 -14 -11 -14 -10 -2 5 10 14 18 15 32 7 10 -5 19 -7 19 -3z m485 -124
c-2 -2 -12 -2 -21 2 -9 4 -14 9 -11 13 4 3 1 13 -5 22 -7 9 0 5 15 -8 15 -14
25 -26 22 -29z m-2310 19 c-4 -13 0 -23 12 -30 12 -7 13 -10 4 -11 -8 0 -2 -9
13 -21 21 -17 24 -24 15 -35 -10 -12 -9 -13 5 -8 11 4 16 1 16 -11 0 -9 4 -14
9 -11 9 6 34 -18 27 -25 -2 -2 11 -15 30 -29 18 -14 34 -32 34 -40 0 -13 -1
-13 -11 0 -8 12 -10 12 -7 1 2 -8 14 -15 26 -16 19 -1 58 -30 97 -71 5 -6 24
-21 42 -33 35 -23 35 -33 8 -112 -27 -76 -48 -118 -57 -113 -4 3 -5 -1 -3 -9
3 -7 -5 -25 -19 -40 -13 -14 -21 -28 -18 -31 3 -3 0 -6 -6 -6 -6 0 -14 -9 -17
-21 -5 -16 -10 -18 -21 -8 -7 6 -11 15 -8 20 3 5 -3 6 -12 2 -10 -4 -15 -2
-11 4 3 5 0 10 -8 10 -8 0 -12 -4 -10 -7 3 -4 -7 -7 -20 -7 -14 0 -25 3 -25 8
0 5 -9 0 -20 -11 -11 -11 -27 -20 -35 -20 -8 0 -15 -6 -15 -12 0 -10 -3 -9 -9
1 -7 11 -10 11 -15 0 -3 -8 -4 -5 -1 7 4 15 -1 24 -21 32 -14 7 -31 10 -37 6
-7 -3 -3 1 7 10 10 8 23 13 27 10 5 -3 9 -1 9 4 0 14 29 24 43 15 18 -11 38
-12 31 -2 -3 5 -9 7 -14 4 -21 -13 -19 18 2 40 17 17 26 21 36 13 10 -8 11 -7
6 8 -7 18 -6 18 17 -1 l24 -20 -23 27 c-23 25 -23 27 -5 37 10 6 14 11 10 11
-4 0 -2 10 4 23 13 22 21 58 20 90 0 9 5 17 10 17 6 0 7 -4 4 -10 -3 -5 -1
-10 5 -10 7 0 9 7 6 16 -4 9 -2 22 4 29 8 9 6 14 -4 18 -10 4 -13 1 -10 -7 3
-8 0 -17 -6 -21 -7 -4 -10 4 -8 22 1 16 -1 34 -6 41 -4 6 -9 20 -11 29 -7 39
-11 47 -32 71 -13 13 -20 28 -17 33 3 5 1 9 -4 9 -11 0 -53 58 -56 77 -3 16
-26 34 -37 27 -4 -2 -4 6 -1 18 5 19 7 20 10 6 2 -10 8 -18 13 -18 6 0 7 5 4
10 -7 12 0 40 10 40 4 0 4 -9 0 -19z m-145 -676 c-7 -8 -16 -13 -20 -10 -4 3
-11 -2 -14 -11 -3 -8 -10 -13 -15 -10 -5 4 -11 2 -13 -2 -1 -5 -11 -1 -21 8
-14 14 -15 20 -6 26 8 4 10 3 5 -4 -4 -7 -2 -12 3 -12 6 0 11 4 11 9 0 5 14 8
31 7 16 -1 32 1 35 6 3 4 8 8 11 8 3 0 0 -7 -7 -15z m-221 -11 c9 -9 8 -49 -1
-61 -6 -7 -19 -13 -29 -13 -11 0 -19 -4 -19 -9 0 -5 -8 -8 -17 -7 -17 3 -26
33 -15 50 4 6 7 16 7 21 1 6 7 9 14 7 8 -2 11 3 8 12 -4 11 0 13 21 10 15 -3
29 -7 31 -10z m39 -7 c-5 -10 -7 -21 -5 -24 3 -2 10 4 16 15 6 11 22 22 36 24
25 5 25 5 8 -12 -10 -10 -20 -16 -22 -14 -2 2 -10 -4 -18 -12 -21 -20 -37 -13
-40 17 -1 18 4 25 17 25 15 0 16 -4 8 -19z m3339 -63 c-10 -10 -29 17 -22 32
6 17 8 17 16 -5 5 -13 8 -25 6 -27z m-3047 -52 c0 -5 -7 -9 -15 -9 -8 0 -12 4
-9 9 3 4 9 8 15 8 5 0 9 -4 9 -8z m2656 -34 c-3 -18 -5 -35 -5 -38 -1 -3 -5 2
-10 9 -6 9 -6 22 -1 32 5 9 6 19 3 23 -3 3 -1 6 5 6 8 0 10 -12 8 -32z m-2916
-8 c0 -5 -2 -10 -4 -10 -3 0 -8 5 -11 10 -3 6 -1 10 4 10 6 0 11 -4 11 -10z
m-161 -61 c-8 -5 -10 -9 -5 -9 16 0 -15 -29 -43 -38 -34 -12 -66 2 -42 17 9 6
22 6 31 1 9 -5 22 -5 29 -1 10 6 9 10 -4 14 -11 5 -14 3 -9 -6 5 -9 3 -8 -7 1
-12 11 -12 14 0 21 7 5 24 9 38 9 18 0 21 -3 12 -9z"/>
<path d="M1170 2860 c0 -5 -5 -9 -12 -7 -7 1 -12 -7 -13 -18 0 -11 -4 -25 -8
-31 -4 -7 0 -17 9 -25 12 -10 18 -9 32 6 9 10 11 15 5 11 -7 -4 -13 -3 -13 2
0 5 11 14 25 20 26 12 32 26 16 37 -5 3 -13 0 -17 -6 -4 -8 -3 -9 4 -5 7 4 12
2 12 -3 0 -12 -23 -15 -33 -4 -4 3 -2 12 4 20 9 9 8 13 0 13 -6 0 -11 -4 -11
-10z m-1 -46 c-6 -7 -8 -18 -4 -23 3 -7 0 -8 -10 -5 -10 4 -12 10 -7 18 5 6 8
19 7 29 -3 15 -1 16 11 6 11 -9 11 -15 3 -25z"/>
<path d="M3674 2715 c3 -23 12 -26 13 -5 1 11 -2 20 -7 20 -4 0 -7 -7 -6 -15z"/>
<path d="M3260 2694 c12 -20 70 -30 70 -12 0 4 5 8 11 8 5 0 8 -4 5 -9 -8 -12
21 -8 35 6 7 7 -7 9 -48 7 -33 -1 -64 3 -72 9 -12 10 -12 9 -1 -9z"/>
<path d="M1438 2541 c8 -4 13 -11 13 -15 -1 -3 1 -6 4 -6 3 0 8 0 11 0 4 0 1
7 -6 15 -7 8 -18 15 -24 15 -7 0 -6 -4 2 -9z"/>
<path d="M1504 2472 c3 -5 1 -12 -6 -14 -8 -3 -9 -6 -1 -11 6 -4 13 0 17 8 3
8 0 17 -6 21 -6 4 -8 3 -4 -4z"/>
<path d="M1514 2427 c-4 -7 -4 -9 1 -5 11 11 35 -11 29 -26 -3 -7 2 -19 11
-26 12 -10 13 -16 3 -29 -12 -14 -11 -14 5 -2 16 13 16 15 2 31 -9 10 -15 21
-14 26 5 30 -24 55 -37 31z"/>
<path d="M1597 2363 c-10 -9 -9 -23 1 -23 5 0 9 7 9 15 0 17 -1 18 -10 8z"/>
<path d="M1570 2321 c0 -19 22 -23 36 -7 8 9 9 11 2 6 -16 -13 -31 -13 -23 0
3 6 1 10 -4 10 -6 0 -11 -4 -11 -9z"/>
<path d="M1613 2296 c-4 -5 -1 -6 7 -1 9 6 10 2 5 -16 -4 -13 -6 -22 -4 -19 2
3 12 14 21 25 16 20 16 21 -3 21 -11 0 -23 -5 -26 -10z"/>
<path d="M1590 2260 c0 -5 5 -10 10 -10 6 0 10 5 10 10 0 6 -4 10 -10 10 -5 0
-10 -4 -10 -10z"/>
<path d="M1653 2247 c0 -8 6 -14 14 -14 9 0 10 4 2 14 -6 7 -12 13 -14 13 -1
0 -2 -6 -2 -13z"/>
<path d="M1619 2228 c0 -2 -2 -13 -3 -25 -2 -19 0 -21 12 -11 9 8 10 14 3 16
-6 2 -9 8 -5 13 3 5 3 9 0 9 -3 0 -6 -1 -7 -2z"/>
<path d="M1565 2198 l-20 -21 23 12 c12 6 22 16 22 21 0 13 -2 12 -25 -12z"/>
<path d="M1695 2200 c-3 -5 -1 -10 4 -10 6 0 11 5 11 10 0 6 -2 10 -4 10 -3 0
-8 -4 -11 -10z"/>
<path d="M1590 2185 c0 -5 5 -17 10 -25 5 -8 10 -10 10 -5 0 6 -5 17 -10 25
-5 8 -10 11 -10 5z"/>
<path d="M1560 2161 c0 -5 7 -11 14 -14 10 -4 13 -1 9 9 -6 15 -23 19 -23 5z"/>
<path d="M1540 2140 c0 -6 7 -10 15 -10 8 0 15 2 15 4 0 2 -7 6 -15 10 -8 3
-15 1 -15 -4z"/>
<path d="M1599 2138 c-9 -17 -3 -51 10 -60 14 -11 14 -11 5 2 -6 8 -10 25 -9
38 1 19 -2 29 -6 20z"/>
<path d="M1540 2106 c0 -2 9 -6 20 -9 11 -3 18 -1 14 4 -5 9 -34 13 -34 5z"/>
<path d="M1535 2080 c3 -5 8 -10 11 -10 2 0 4 5 4 10 0 6 -5 10 -11 10 -5 0
-7 -4 -4 -10z"/>
<path d="M1553 2045 c0 -8 4 -12 9 -9 5 3 6 10 3 15 -9 13 -12 11 -12 -6z"/>
<path d="M1477 2043 c-11 -11 -8 -21 9 -27 13 -5 14 -4 6 7 -7 8 -9 17 -5 20
3 4 4 7 1 7 -2 0 -8 -3 -11 -7z"/>
<path d="M1517 2013 c-10 -9 -9 -23 1 -23 5 0 9 7 9 15 0 17 -1 18 -10 8z"/>
<path d="M1419 1977 c6 -8 8 -17 4 -21 -4 -4 0 -4 10 0 9 3 17 10 17 16 0 5
-4 6 -10 3 -5 -3 -10 -1 -10 4 0 6 -5 11 -11 11 -8 0 -9 -4 0 -13z"/>
<path d="M1485 1979 c-4 -6 -5 -12 -2 -15 2 -3 7 2 10 11 7 17 1 20 -8 4z"/>
<path d="M1613 1959 c-2 -23 3 -25 10 -4 4 8 3 16 -1 19 -4 3 -9 -4 -9 -15z"/>
<path d="M1017 1916 c-4 -10 -12 -14 -19 -10 -7 4 -10 4 -6 -1 4 -4 3 -14 -4
-22 -6 -8 -7 -13 -2 -12 23 4 26 -2 8 -16 -17 -14 -15 -14 13 0 18 8 35 15 38
15 17 0 18 1 8 11 -6 6 -9 18 -6 27 4 9 2 13 -4 9 -6 -4 -13 -2 -15 5 -3 7 -7
5 -11 -6z m21 -27 c10 -14 9 -16 -10 -14 -32 3 -32 3 -18 20 7 9 13 14 14 13
1 -2 7 -10 14 -19z"/>
<path d="M930 1696 c0 -2 7 -7 16 -10 8 -3 12 -2 9 4 -6 10 -25 14 -25 6z"/>
<path d="M3699 4008 c-5 -18 -6 -38 -1 -34 7 8 12 36 6 36 -2 0 -4 -1 -5 -2z"/>
<path d="M2838 3958 c-9 -5 -6 -7 9 -5 12 2 25 6 28 8 8 9 -23 6 -37 -3z"/>
<path d="M3730 3940 c0 -5 5 -10 11 -10 5 0 7 5 4 10 -3 6 -8 10 -11 10 -2 0
-4 -4 -4 -10z"/>
<path d="M2830 3900 c0 -5 5 -10 10 -10 6 0 10 5 10 10 0 6 -4 10 -10 10 -5 0
-10 -4 -10 -10z"/>
<path d="M2935 3900 c-3 -5 -1 -10 4 -10 6 0 11 5 11 10 0 6 -2 10 -4 10 -3 0
-8 -4 -11 -10z"/>
<path d="M3757 3868 c19 -21 31 -25 14 -5 -6 8 -9 16 -6 19 3 2 -2 5 -10 5
-13 0 -13 -3 2 -19z"/>
<path d="M2874 3841 c4 -5 1 -12 -4 -14 -6 -3 -5 -4 2 -3 15 3 23 26 8 26 -6
0 -9 -4 -6 -9z"/>
<path d="M2902 3804 c10 -10 20 -16 22 -13 3 3 -5 11 -17 18 -21 13 -21 12 -5
-5z"/>
<path d="M2856 3798 c3 -5 10 -6 15 -3 13 9 11 12 -6 12 -8 0 -12 -4 -9 -9z"/>
<path d="M3819 3793 c-13 -17 -13 -17 6 -3 11 8 22 16 24 17 2 2 0 3 -6 3 -6
0 -17 -8 -24 -17z"/>
<path d="M2955 3789 c-4 -6 -5 -12 -2 -15 2 -3 7 2 10 11 7 17 1 20 -8 4z"/>
<path d="M3836 3775 c-11 -8 -14 -15 -7 -15 7 0 9 -5 5 -12 -5 -7 -3 -8 5 -4
7 5 10 11 7 14 -3 3 -1 11 5 19 15 17 9 16 -15 -2z"/>
<path d="M3904 3758 l-19 -23 23 19 c21 18 27 26 19 26 -2 0 -12 -10 -23 -22z"/>
<path d="M2960 3760 c-9 -6 -10 -10 -3 -10 6 0 15 5 18 10 8 12 4 12 -15 0z"/>
<path d="M2906 3742 c-3 -5 1 -9 9 -9 8 0 15 4 15 9 0 4 -4 8 -9 8 -6 0 -12
-4 -15 -8z"/>
<path d="M3926 3738 c3 -5 10 -6 15 -3 13 9 11 12 -6 12 -8 0 -12 -4 -9 -9z"/>
<path d="M3852 3731 c-11 -7 -11 -9 0 -14 9 -3 15 1 15 9 0 8 -1 14 -1 14 -1
0 -7 -4 -14 -9z"/>
<path d="M2955 3720 c3 -5 8 -10 11 -10 2 0 4 5 4 10 0 6 -5 10 -11 10 -5 0
-7 -4 -4 -10z"/>
<path d="M2864 3689 c0 -9 5 -15 11 -12 7 2 12 10 12 17 0 7 -5 13 -12 13 -6
0 -11 -8 -11 -18z"/>
<path d="M2907 3699 c7 -8 11 -26 8 -39 -2 -12 -1 -20 2 -16 14 14 12 45 -5
57 -15 12 -16 12 -5 -2z"/>
<path d="M1625 3680 c-3 -6 1 -7 9 -4 18 7 21 14 7 14 -6 0 -13 -4 -16 -10z"/>
<path d="M1710 3680 c0 -5 5 -10 11 -10 5 0 7 5 4 10 -3 6 -8 10 -11 10 -2 0
-4 -4 -4 -10z"/>
<path d="M2940 3685 c0 -2 6 -8 13 -14 10 -8 14 -7 14 2 0 8 -6 14 -14 14 -7
0 -13 -1 -13 -2z"/>
<path d="M3913 3674 c0 -9 4 -11 12 -4 7 5 14 9 16 7 2 -1 3 0 1 2 -7 11 -29
7 -29 -5z"/>
<path d="M3878 3645 c9 -11 18 -21 18 -23 1 -2 1 7 1 20 -1 15 -8 24 -19 24
-16 0 -16 -1 0 -21z"/>
<path d="M3910 3645 c0 -7 30 -13 34 -7 3 4 -4 9 -15 9 -10 1 -19 0 -19 -2z"/>
<path d="M2877 3610 c15 -16 53 -24 53 -11 0 5 -8 8 -17 6 -10 -1 -25 2 -33 8
-12 9 -13 9 -3 -3z"/>
<path d="M3935 3609 c-4 -6 -5 -12 -2 -15 2 -3 7 2 10 11 7 17 1 20 -8 4z"/>
<path d="M3886 3601 c-3 -5 1 -11 9 -14 9 -4 12 -1 8 9 -6 16 -10 17 -17 5z"/>
<path d="M4000 3600 c-9 -6 -10 -10 -3 -10 6 0 15 5 18 10 8 12 4 12 -15 0z"/>
<path d="M3917 3553 c-10 -9 -9 -23 1 -23 5 0 9 7 9 15 0 17 -1 18 -10 8z"/>
<path d="M1830 3540 c0 -5 5 -10 11 -10 5 0 7 5 4 10 -3 6 -8 10 -11 10 -2 0
-4 -4 -4 -10z"/>
<path d="M2895 3529 c-4 -6 -5 -12 -2 -15 2 -3 7 2 10 11 7 17 1 20 -8 4z"/>
<path d="M2860 3515 c0 -8 2 -15 4 -15 2 0 6 7 10 15 3 8 1 15 -4 15 -6 0 -10
-7 -10 -15z"/>
<path d="M2892 3480 c0 -14 2 -19 5 -12 2 6 2 18 0 25 -3 6 -5 1 -5 -13z"/>
<path d="M1859 3463 c0 -5 -2 -16 -4 -26 -2 -11 -1 -16 3 -13 8 8 14 46 7 46
-3 0 -5 -3 -6 -7z"/>
<path d="M3920 3460 c-9 -6 -10 -10 -3 -10 6 0 15 5 18 10 8 12 4 12 -15 0z"/>
<path d="M2883 3438 c-9 -16 -16 -54 -7 -46 3 3 6 12 8 20 1 7 5 19 9 26 5 6
6 12 3 12 -3 0 -8 -6 -13 -12z"/>
<path d="M3953 3443 c4 -3 1 -13 -6 -22 -11 -14 -10 -14 5 -2 16 12 16 31 1
31 -4 0 -3 -3 0 -7z"/>
<path d="M1919 3395 c-1 -3 -2 -8 -3 -12 -1 -5 -5 -14 -10 -21 -4 -7 -5 -16
-2 -19 3 -4 6 -1 6 6 0 7 4 10 8 7 4 -2 8 6 8 20 0 21 -4 32 -7 19z"/>
<path d="M2830 3396 c0 -2 8 -10 18 -17 15 -13 16 -12 3 4 -13 16 -21 21 -21
13z"/>
<path d="M2813 3355 c0 -8 4 -12 9 -9 4 3 8 9 8 15 0 5 -4 9 -8 9 -5 0 -9 -7
-9 -15z"/>
<path d="M1946 3342 c-2 -4 4 -8 14 -8 10 0 16 4 14 8 -3 4 -9 8 -14 8 -5 0
-11 -4 -14 -8z"/>
<path d="M2796 3321 c2 -2 -2 -11 -9 -20 -11 -14 -10 -15 7 -1 10 8 25 15 33
16 28 4 24 12 -6 10 -16 0 -28 -3 -25 -5z"/>
<path d="M1957 3297 c4 -6 0 -8 -8 -5 -10 4 -15 -1 -17 -15 -1 -17 1 -19 8 -7
8 13 14 8 12 -11 -1 -3 6 -6 13 -6 11 0 12 4 4 14 -8 9 -8 17 0 26 8 10 7 14
-4 14 -8 0 -11 -5 -8 -10z"/>
<path d="M2020 3286 c0 -2 8 -10 18 -17 15 -13 16 -12 3 4 -13 16 -21 21 -21
13z"/>
<path d="M3879 3278 c-5 -19 -8 -50 -4 -46 7 7 15 48 9 48 -2 0 -4 -1 -5 -2z"/>
<path d="M2790 3265 c0 -7 30 -13 34 -7 3 4 -4 9 -15 9 -10 1 -19 0 -19 -2z"/>
<path d="M2846 3258 c3 -5 10 -6 15 -3 13 9 11 12 -6 12 -8 0 -12 -4 -9 -9z"/>
<path d="M4300 3250 c-81 -12 -167 -58 -259 -139 -13 -11 -28 -18 -34 -14 -5
3 -7 2 -4 -4 9 -15 -49 -77 -64 -68 -11 6 -11 5 -2 -5 9 -10 8 -19 -5 -39 -9
-14 -20 -29 -25 -32 -5 -3 -8 -9 -8 -13 3 -19 -2 -22 -27 -22 -16 1 -38 8 -48
16 -18 14 -19 14 -1 -7 14 -16 15 -22 5 -26 -11 -4 -11 -6 0 -6 7 -1 10 -5 7
-11 -3 -5 -1 -10 5 -10 7 0 9 -7 6 -16 -3 -9 -2 -12 4 -9 6 4 10 -6 8 -24 -1
-17 -5 -31 -8 -31 -3 0 -4 -21 -4 -47 3 -88 9 -141 15 -137 12 7 17 -51 6 -66
-10 -13 -10 -13 3 -3 13 10 21 6 47 -20 42 -44 74 -67 94 -67 22 0 44 -26 29
-35 -8 -5 -7 -11 2 -23 11 -13 11 -14 0 -8 -10 6 -11 1 -6 -18 4 -16 2 -26 -5
-26 -6 0 -10 5 -8 12 1 6 -5 13 -13 13 -8 1 -9 0 -2 -2 7 -3 9 -9 6 -14 -3 -6
4 -13 16 -16 l23 -6 -24 -19 c-21 -17 -22 -19 -4 -14 16 5 21 1 21 -13 0 -11
-5 -17 -10 -14 -5 4 -7 -1 -3 -11 4 -10 3 -15 -3 -11 -6 3 -10 1 -10 -4 0 -6
6 -11 14 -11 8 0 16 -6 19 -14 3 -8 16 -12 32 -11 21 3 25 0 20 -15 -3 -10 -2
-21 3 -24 6 -3 9 1 8 9 0 7 3 14 8 14 5 -1 13 5 17 13 7 10 9 10 9 1 0 -7 5
-13 11 -13 5 0 7 5 3 12 -4 7 -3 8 4 4 6 -4 9 -13 5 -22 -4 -11 -9 -12 -19 -3
-14 11 -16 8 -13 -18 0 -5 -10 -11 -23 -14 -13 -3 -22 -12 -20 -19 2 -9 -5
-10 -23 -6 -34 9 -32 0 4 -12 25 -9 29 -8 26 6 -1 10 7 19 19 23 12 3 20 11
19 17 -4 15 10 15 25 0 9 -9 15 -9 24 0 18 18 27 15 23 -7 -3 -14 1 -18 12
-14 10 4 11 8 3 13 -6 4 -11 10 -11 14 3 18 0 23 -13 23 -8 0 -14 -5 -13 -10
1 -5 -4 -12 -11 -14 -10 -4 -10 1 0 21 8 19 14 23 20 14 6 -10 8 -10 8 2 0 12
2 12 9 2 11 -17 21 -17 33 0 8 10 9 10 5 -2 -2 -8 -9 -14 -15 -13 -7 2 -9 -4
-5 -13 5 -13 9 -11 22 10 9 14 22 26 29 26 9 0 12 6 8 16 -3 8 -2 12 4 9 6 -3
10 -1 10 4 0 6 -6 11 -12 11 -8 0 -9 3 -3 8 15 11 17 32 2 32 -9 0 -8 3 2 9 9
6 10 11 2 15 -8 5 -4 14 11 28 18 15 19 18 5 14 -10 -3 -15 -2 -12 3 3 5 1 13
-5 16 -6 4 -2 14 11 24 15 12 19 20 11 25 -7 4 -12 2 -12 -3 0 -6 -5 -11 -11
-11 -8 0 -8 5 1 15 7 8 17 12 23 8 7 -4 8 1 4 13 -7 18 -6 18 8 -1 9 -11 18
-19 20 -17 3 1 4 -1 3 -5 -2 -5 -6 -7 -10 -6 -4 2 -6 -3 -4 -10 1 -6 1 -9 -1
-4 -3 4 -9 4 -14 1 -6 -3 -2 -12 8 -20 12 -9 13 -13 5 -14 -7 0 -10 -5 -6 -11
4 -8 9 -7 15 2 6 11 11 11 21 1 6 -6 17 -12 22 -12 6 0 4 5 -4 10 -12 7 -10
11 10 19 l25 10 -23 0 c-13 1 -20 5 -17 11 3 6 1 10 -5 10 -6 0 -8 5 -4 11 4
8 9 8 17 0 6 -6 15 -11 21 -11 5 0 1 6 -10 14 -11 8 -15 18 -10 23 5 4 11 2
13 -4 3 -7 8 -13 13 -13 10 0 8 20 -4 38 -4 7 -5 16 -1 20 3 3 10 1 14 -7 7
-10 9 -10 14 2 4 10 -1 14 -16 13 -12 -1 -28 3 -36 8 -10 7 -8 2 3 -16 12 -19
14 -28 6 -28 -6 0 -14 9 -17 20 -3 11 -9 17 -14 14 -5 -3 -7 -10 -4 -15 4 -5
0 -9 -7 -9 -8 0 -6 -5 5 -11 9 -5 17 -14 17 -20 0 -5 -10 -1 -22 11 -12 11
-28 20 -35 20 -9 0 -8 5 5 18 11 12 20 14 24 8 8 -11 12 -1 9 17 -1 5 3 6 8 2
6 -3 15 3 21 14 11 22 42 18 34 -4 -3 -8 3 -12 20 -12 l24 0 -26 22 c-23 20
-24 24 -11 37 12 12 17 13 27 2 6 -7 8 -15 3 -19 -5 -3 -12 0 -14 5 -3 6 -4 5
-3 -2 4 -20 34 -34 47 -21 9 9 6 11 -12 6 -19 -5 -22 -3 -12 7 9 9 9 17 0 30
-12 21 5 50 30 50 8 0 11 5 8 10 -3 6 4 11 17 11 17 1 18 3 5 6 -9 2 -15 8
-12 13 3 5 13 6 23 3 14 -6 15 -4 5 8 -10 12 -9 18 7 31 10 9 21 14 23 11 3
-3 3 4 0 15 -2 11 1 23 8 27 8 6 10 4 4 -5 -5 -9 -4 -11 4 -6 9 6 9 11 -1 24
-11 14 -10 15 7 8 15 -5 17 -4 8 5 -9 9 -9 18 0 38 16 37 16 37 32 15 11 -13
14 -14 13 -4 -2 8 -10 20 -18 27 -13 10 -13 15 -2 33 8 12 9 19 3 16 -13 -8
-4 21 13 43 8 11 8 13 -1 7 -8 -4 -13 -1 -13 8 0 10 6 13 18 9 15 -5 14 -4 -2
9 -10 8 -16 20 -12 26 3 6 2 13 -4 17 -5 3 -8 19 -6 35 2 16 0 28 -4 25 -3 -2
-14 9 -24 26 -9 16 -14 29 -9 29 4 0 0 5 -10 11 -9 6 -14 15 -11 21 4 6 3 8
-3 5 -5 -3 -21 5 -36 19 -14 13 -33 24 -42 24 -8 0 -15 5 -15 10 0 6 -3 9 -7
9 -5 -1 -10 -1 -13 0 -17 6 -112 6 -150 1z m80 -872 c0 -4 -6 -5 -14 -2 -8 3
-12 12 -9 21 5 12 7 12 14 1 5 -7 9 -16 9 -20z"/>
<path d="M3896 3233 c-6 -14 -5 -15 5 -6 7 7 10 15 7 18 -3 3 -9 -2 -12 -12z"/>
<path d="M1945 3220 c-3 -6 1 -7 9 -4 18 7 21 14 7 14 -6 0 -13 -4 -16 -10z"/>
<path d="M1980 3226 c0 -2 8 -10 18 -17 15 -13 16 -12 3 4 -13 16 -21 21 -21
13z"/>
<path d="M3917 3213 c-10 -9 -9 -23 1 -23 5 0 9 7 9 15 0 17 -1 18 -10 8z"/>
<path d="M1954 3199 c-3 -6 -1 -16 5 -22 9 -9 10 -7 5 8 -7 18 -6 19 12 5 18
-14 18 -14 5 3 -16 20 -18 20 -27 6z"/>
<path d="M2016 3193 c-6 -14 -5 -15 5 -6 7 7 10 15 7 18 -3 3 -9 -2 -12 -12z"/>
<path d="M2716 3198 c3 -5 10 -6 15 -3 13 9 11 12 -6 12 -8 0 -12 -4 -9 -9z"/>
<path d="M4746 3202 c-3 -5 1 -9 9 -9 8 0 12 4 9 9 -3 4 -7 8 -9 8 -2 0 -6 -4
-9 -8z"/>
<path d="M2795 3181 c-3 -5 -2 -12 3 -15 5 -3 9 1 9 9 0 17 -3 19 -12 6z"/>
<path d="M3894 3160 c0 -13 4 -16 10 -10 7 7 7 13 0 20 -6 6 -10 3 -10 -10z"/>
<path d="M2716 3153 c-6 -14 -5 -15 5 -6 7 7 10 15 7 18 -3 3 -9 -2 -12 -12z"/>
<path d="M2037 3133 c-10 -9 -9 -23 1 -23 5 0 9 7 9 15 0 17 -1 18 -10 8z"/>
<path d="M1956 3118 c3 -5 10 -6 15 -3 13 9 11 12 -6 12 -8 0 -12 -4 -9 -9z"/>
<path d="M2106 3122 c-2 -4 4 -8 14 -8 10 0 16 4 14 8 -3 4 -9 8 -14 8 -5 0
-11 -4 -14 -8z"/>
<path d="M2625 3120 c-3 -6 1 -7 9 -4 18 7 21 14 7 14 -6 0 -13 -4 -16 -10z"/>
<path d="M1990 3106 c0 -2 7 -7 16 -10 8 -3 12 -2 9 4 -6 10 -25 14 -25 6z"/>
<path d="M4670 3099 c0 -5 5 -7 10 -4 6 3 10 8 10 11 0 2 -4 4 -10 4 -5 0 -10
-5 -10 -11z"/>
<path d="M1977 3089 c7 -7 15 -10 18 -7 3 3 -2 9 -12 12 -14 6 -15 5 -6 -5z"/>
<path d="M3815 3089 c-4 -6 -5 -12 -2 -15 2 -3 7 2 10 11 7 17 1 20 -8 4z"/>
<path d="M2636 3078 c3 -5 10 -6 15 -3 13 9 11 12 -6 12 -8 0 -12 -4 -9 -9z"/>
<path d="M4670 3056 c7 -7 13 -7 20 0 6 6 3 10 -10 10 -13 0 -16 -4 -10 -10z"/>
<path d="M4720 3060 c-12 -7 -10 -9 7 -7 12 0 19 5 17 9 -6 10 -6 10 -24 -2z"/>
<path d="M2353 3047 c0 -8 6 -14 14 -14 9 0 10 4 2 14 -6 7 -12 13 -14 13 -1
0 -2 -6 -2 -13z"/>
<path d="M2429 3043 c-13 -16 -12 -17 4 -4 9 7 17 15 17 17 0 8 -8 3 -21 -13z"/>
<path d="M3817 3049 c7 -7 15 -10 18 -7 3 3 -2 9 -12 12 -14 6 -15 5 -6 -5z"/>
<path d="M3800 3031 c0 -6 4 -13 10 -16 6 -3 7 1 4 9 -7 18 -14 21 -14 7z"/>
<path d="M4735 3020 c-3 -5 -1 -10 4 -10 6 0 11 5 11 10 0 6 -2 10 -4 10 -3 0
-8 -4 -11 -10z"/>
<path d="M4793 3005 c0 -8 4 -12 9 -9 5 3 6 10 3 15 -9 13 -12 11 -12 -6z"/>
<path d="M2530 2999 c0 -5 5 -7 10 -4 6 3 10 8 10 11 0 2 -4 4 -10 4 -5 0 -10
-5 -10 -11z"/>
<path d="M4670 3005 c0 -7 30 -13 34 -7 3 4 -4 9 -15 9 -10 1 -19 0 -19 -2z"/>
<path d="M2350 2990 c0 -5 5 -10 11 -10 5 0 7 5 4 10 -3 6 -8 10 -11 10 -2 0
-4 -4 -4 -10z"/>
<path d="M2660 2980 c-12 -7 -10 -9 7 -7 12 0 19 5 17 9 -6 10 -6 10 -24 -2z"/>
<path d="M3799 2973 c-13 -16 -12 -17 4 -4 16 13 21 21 13 21 -2 0 -10 -8 -17
-17z"/>
<path d="M3833 2975 c0 -8 4 -12 9 -9 5 3 6 10 3 15 -9 13 -12 11 -12 -6z"/>
<path d="M4695 2970 c-4 -6 -10 -8 -14 -6 -3 3 -7 -11 -7 -29 0 -18 3 -32 7
-29 4 2 6 12 4 22 -1 9 4 25 13 35 8 9 12 17 9 17 -3 0 -9 -5 -12 -10z"/>
<path d="M2458 2952 c4 -11 1 -13 -8 -7 -9 5 -11 4 -6 -3 10 -16 14 -15 25 6
7 14 6 19 -4 19 -7 0 -11 -7 -7 -15z"/>
<path d="M2569 2957 c6 -8 7 -18 3 -22 -4 -5 -1 -5 6 -1 10 6 10 11 1 22 -6 8
-14 14 -16 14 -3 0 0 -6 6 -13z"/>
<path d="M2619 2953 c-13 -16 -12 -17 4 -4 16 13 21 21 13 21 -2 0 -10 -8 -17
-17z"/>
<path d="M2415 2940 c3 -5 8 -10 11 -10 2 0 4 5 4 10 0 6 -5 10 -11 10 -5 0
-7 -4 -4 -10z"/>
<path d="M2530 2940 c-9 -6 -10 -10 -3 -10 6 0 15 5 18 10 8 12 4 12 -15 0z"/>
<path d="M3873 2935 c0 -8 4 -12 9 -9 5 3 6 10 3 15 -9 13 -12 11 -12 -6z"/>
<path d="M4755 2929 c-4 -6 -5 -12 -2 -15 2 -3 7 2 10 11 7 17 1 20 -8 4z"/>
<path d="M2755 2911 c1 -8 7 -16 14 -17 7 -2 7 0 1 3 -7 3 -8 9 -1 17 8 9 7
13 -3 13 -8 0 -13 -7 -11 -16z"/>
<path d="M2880 2920 c-9 -6 -10 -10 -3 -10 6 0 15 5 18 10 8 12 4 12 -15 0z"/>
<path d="M3715 2919 c-4 -6 -5 -12 -2 -15 2 -3 7 2 10 11 7 17 1 20 -8 4z"/>
<path d="M3795 2923 c3 -3 0 -11 -5 -18 -7 -8 -5 -12 4 -12 14 0 16 22 3 32
-4 3 -5 2 -2 -2z"/>
<path d="M4795 2920 c-3 -5 -1 -10 4 -10 6 0 11 5 11 10 0 6 -2 10 -4 10 -3 0
-8 -4 -11 -10z"/>
<path d="M3730 2906 c0 -3 9 -10 20 -16 11 -6 20 -8 20 -6 0 3 -9 10 -20 16
-11 6 -20 8 -20 6z"/>
<path d="M3727 2879 c7 -7 15 -10 18 -7 3 3 -2 9 -12 12 -14 6 -15 5 -6 -5z"/>
<path d="M4633 2884 c8 -9 47 -13 51 -6 2 4 -9 8 -25 8 -17 1 -28 0 -26 -2z"/>
<path d="M2786 2859 c2 -4 0 -10 -6 -14 -5 -3 -10 -1 -10 4 0 6 -5 11 -11 11
-8 0 -8 -5 1 -15 9 -11 16 -12 25 -5 6 5 14 7 17 4 3 -2 8 1 11 8 3 8 -2 14
-13 14 -10 0 -17 -4 -14 -7z"/>
<path d="M2873 2863 c4 -3 -1 -16 -10 -27 -18 -21 -18 -21 4 -2 20 16 23 36 6
36 -4 0 -3 -3 0 -7z"/>
<path d="M3756 2848 c-14 -16 -15 -20 -3 -15 8 3 19 1 24 -4 6 -6 10 -4 10 5
0 8 -5 12 -10 9 -6 -4 -8 0 -4 10 8 22 5 21 -17 -5z"/>
<path d="M4734 2856 c1 -8 5 -18 8 -22 4 -3 5 1 4 10 -1 8 -5 18 -8 22 -4 3
-5 -1 -4 -10z"/>
<path d="M3825 2820 c-3 -6 1 -7 9 -4 18 7 21 14 7 14 -6 0 -13 -4 -16 -10z"/>
<path d="M4615 2819 c-4 -6 -4 -13 -1 -16 3 -4 6 -1 6 6 0 7 5 9 12 5 7 -4 8
-3 4 4 -9 15 -13 15 -21 1z"/>
<path d="M4649 2803 c-13 -16 -12 -17 4 -4 16 13 21 21 13 21 -2 0 -10 -8 -17
-17z"/>
<path d="M4690 2779 c0 -5 5 -7 10 -4 6 3 10 8 10 11 0 2 -4 4 -10 4 -5 0 -10
-5 -10 -11z"/>
<path d="M3772 2771 c5 -16 35 -24 43 -11 3 5 -3 7 -12 6 -10 -2 -22 2 -26 8
-6 7 -7 6 -5 -3z"/>
<path d="M4635 2770 c-4 -6 -11 -8 -16 -5 -5 4 -9 1 -9 -4 0 -16 16 -13 30 4
7 8 10 15 7 15 -3 0 -9 -5 -12 -10z"/>
<path d="M3750 2761 c0 -6 4 -13 10 -16 6 -3 7 1 4 9 -7 18 -14 21 -14 7z"/>
<path d="M3760 2721 c0 -5 7 -12 16 -15 14 -5 15 -4 4 9 -14 17 -20 19 -20 6z"/>
<path d="M4557 2690 c7 -8 20 -15 29 -16 9 -1 13 1 9 4 -4 4 -10 7 -13 7 -4 0
-14 4 -22 9 -12 7 -13 6 -3 -4z"/>
<path d="M4610 2659 c0 -5 5 -7 10 -4 6 3 10 8 10 11 0 2 -4 4 -10 4 -5 0 -10
-5 -10 -11z"/>
<path d="M4656 2662 c-3 -5 1 -9 9 -9 8 0 12 4 9 9 -3 4 -7 8 -9 8 -2 0 -6 -4
-9 -8z"/>
<path d="M4573 2647 c0 -8 6 -14 14 -14 9 0 10 4 2 14 -6 7 -12 13 -14 13 -1
0 -2 -6 -2 -13z"/>
<path d="M3757 2643 c-13 -12 -7 -23 11 -22 10 0 12 3 4 6 -6 2 -10 9 -6 14 6
10 0 12 -9 2z"/>
<path d="M3795 2595 c1 -19 4 -38 8 -41 3 -3 4 11 3 30 -2 20 -5 39 -8 42 -3
3 -5 -11 -3 -31z"/>
<path d="M4477 2613 c-4 -3 -7 -11 -7 -17 0 -6 5 -5 12 2 6 6 9 14 7 17 -3 3
-9 2 -12 -2z"/>
<path d="M4510 2605 c0 -8 4 -15 10 -15 5 0 7 7 4 15 -4 8 -8 15 -10 15 -2 0
-4 -7 -4 -15z"/>
<path d="M3830 2580 c0 -5 5 -10 11 -10 5 0 7 5 4 10 -3 6 -8 10 -11 10 -2 0
-4 -4 -4 -10z"/>
<path d="M4550 2580 c0 -5 5 -10 11 -10 5 0 7 5 4 10 -3 6 -8 10 -11 10 -2 0
-4 -4 -4 -10z"/>
<path d="M4535 2551 c-3 -5 -2 -12 3 -15 5 -3 9 1 9 9 0 17 -3 19 -12 6z"/>
<path d="M3825 2540 c-3 -6 1 -7 9 -4 18 7 21 14 7 14 -6 0 -13 -4 -16 -10z"/>
<path d="M3866 2498 c3 -4 9 -8 15 -8 5 0 9 4 9 8 0 5 -7 9 -15 9 -8 0 -12 -4
-9 -9z"/>
<path d="M3820 2480 c8 -5 20 -10 25 -10 6 0 3 5 -5 10 -8 5 -19 10 -25 10 -5
0 -3 -5 5 -10z"/>
<path d="M3877 2435 c-4 -8 -3 -16 1 -19 4 -3 9 4 9 15 2 23 -3 25 -10 4z"/>
<path d="M3953 2432 c0 -10 7 -19 14 -19 9 0 10 4 3 12 -5 7 -7 15 -3 18 3 4
1 7 -5 7 -6 0 -10 -8 -9 -18z"/>
<path d="M4020 2431 c0 -7 -5 -9 -12 -5 -7 5 -8 3 -3 -5 5 -9 10 -10 18 -2 6
6 8 14 4 18 -4 3 -7 1 -7 -6z"/>
<path d="M3906 2422 c-2 -4 4 -8 14 -8 10 0 16 4 14 8 -3 4 -9 8 -14 8 -5 0
-11 -4 -14 -8z"/>
<path d="M4475 2420 c-3 -5 -1 -10 4 -10 6 0 11 5 11 10 0 6 -2 10 -4 10 -3 0
-8 -4 -11 -10z"/>
<path d="M3993 2395 c0 -7 6 -11 14 -8 7 3 13 6 13 8 0 2 -6 5 -13 8 -8 3 -14
-1 -14 -8z"/>
<path d="M3953 2370 c19 -25 20 -26 14 -8 -3 9 -1 19 6 21 7 3 2 4 -10 4 -18
-1 -20 -4 -10 -17z"/>
<path d="M4310 2380 c0 -5 5 -10 11 -10 5 0 7 5 4 10 -3 6 -8 10 -11 10 -2 0
-4 -4 -4 -10z"/>
<path d="M4436 2378 c3 -5 10 -6 15 -3 13 9 11 12 -6 12 -8 0 -12 -4 -9 -9z"/>
<path d="M4513 2365 c0 -8 4 -12 9 -9 5 3 6 10 3 15 -9 13 -12 11 -12 -6z"/>
<path d="M4324 2336 c-14 -15 -13 -58 1 -68 6 -5 5 -8 -3 -8 -7 0 -10 -4 -7
-10 7 -12 -22 -70 -35 -70 -5 0 -15 -10 -21 -22 l-11 -23 21 23 c12 12 26 22
31 22 6 0 10 8 10 18 0 13 2 14 9 4 7 -11 9 -10 14 3 4 10 3 14 -4 9 -13 -8
-2 34 14 54 7 9 4 19 -9 34 l-19 21 32 -17 c19 -9 34 -12 38 -6 6 10 -15 50
-27 50 -14 0 -8 -18 7 -24 8 -3 15 -10 15 -15 0 -16 -26 -2 -36 19 -7 14 -11
16 -20 6z m14 -61 c-3 -3 -9 2 -12 12 -6 14 -5 15 5 6 7 -7 10 -15 7 -18z"/>
<path d="M4400 2340 c-9 -6 -10 -10 -3 -10 6 0 15 5 18 10 8 12 4 12 -15 0z"/>
<path d="M3987 2313 c3 -7 9 -10 14 -7 14 8 11 21 -5 21 -8 0 -12 -6 -9 -14z"/>
<path d="M4396 2278 c3 -5 10 -6 15 -3 13 9 11 12 -6 12 -8 0 -12 -4 -9 -9z"/>
<path d="M4440 2280 c-9 -6 -10 -10 -3 -10 6 0 15 5 18 10 8 12 4 12 -15 0z"/>
<path d="M3995 2271 c-3 -5 0 -13 6 -17 7 -4 9 -3 5 4 -3 5 0 13 6 15 9 4 10
6 1 6 -6 1 -14 -3 -18 -8z"/>
<path d="M4360 2276 c0 -2 7 -7 16 -10 8 -3 12 -2 9 4 -6 10 -25 14 -25 6z"/>
<path d="M4344 2248 c-4 -6 -2 -14 4 -16 7 -2 10 -7 8 -11 -3 -4 1 -8 9 -8 13
0 13 3 -1 18 -12 13 -12 18 -2 22 9 4 9 6 1 6 -6 1 -15 -4 -19 -11z"/>
<path d="M3996 2230 c7 -8 14 -24 17 -35 4 -19 5 -19 6 1 0 12 -7 28 -16 35
-16 12 -17 12 -7 -1z"/>
<path d="M4034 2200 c0 -13 4 -16 10 -10 7 7 7 13 0 20 -6 6 -10 3 -10 -10z"/>
<path d="M4064 2185 c-10 -8 -14 -14 -9 -15 15 0 40 18 34 24 -3 3 -14 -1 -25
-9z"/>
<path d="M4330 2177 c0 -2 6 -10 14 -16 11 -9 16 -9 22 1 4 7 4 10 -1 6 -4 -4
-14 -3 -22 3 -7 6 -13 9 -13 6z"/>
<path d="M4028 2163 c6 -2 12 -9 12 -14 0 -6 -5 -7 -12 -3 -7 5 -8 3 -3 -5 5
-9 11 -9 17 -3 12 12 2 32 -15 31 -9 0 -9 -2 1 -6z"/>
<path d="M4077 2163 c-4 -3 -7 -11 -7 -17 0 -6 5 -5 12 2 6 6 9 14 7 17 -3 3
-9 2 -12 -2z"/>
<path d="M4307 2159 c7 -7 15 -10 18 -7 3 3 -2 9 -12 12 -14 6 -15 5 -6 -5z"/>
<path d="M4275 2141 c-3 -5 -2 -12 3 -15 5 -3 9 1 9 9 0 17 -3 19 -12 6z"/>
<path d="M4150 2129 c0 -5 -5 -7 -12 -3 -7 4 -8 3 -4 -5 4 -6 12 -9 17 -5 5 3
17 0 26 -8 15 -12 15 -11 2 10 -15 23 -29 29 -29 11z"/>
<path d="M4219 2113 c-13 -16 -12 -17 4 -4 16 13 21 21 13 21 -2 0 -10 -8 -17
-17z"/>
<path d="M4061 2074 c0 -11 3 -14 6 -6 3 7 2 16 -1 19 -3 4 -6 -2 -5 -13z"/>
<path d="M4111 2053 c7 -12 15 -20 18 -17 3 2 -3 12 -13 22 -17 16 -18 16 -5
-5z"/>
<path d="M4035 2049 c-4 -6 -5 -12 -2 -15 2 -3 7 2 10 11 7 17 1 20 -8 4z"/>
<path d="M4066 2038 c3 -4 9 -8 15 -8 5 0 9 4 9 8 0 5 -7 9 -15 9 -8 0 -12 -4
-9 -9z"/>
<path d="M4206 2018 c3 -5 10 -6 15 -3 13 9 11 12 -6 12 -8 0 -12 -4 -9 -9z"/>
<path d="M4034 1998 c-4 -7 -4 -10 1 -6 4 4 13 0 20 -9 9 -13 14 -13 20 -3 5
9 4 11 -3 6 -7 -4 -12 -1 -12 8 0 19 -16 21 -26 4z"/>
<path d="M4116 1974 c7 -37 16 -47 12 -12 -2 15 -7 30 -11 34 -3 3 -4 -6 -1
-22z"/>
<path d="M4230 1980 c0 -5 5 -10 11 -10 5 0 7 5 4 10 -3 6 -8 10 -11 10 -2 0
-4 -4 -4 -10z"/>
<path d="M4435 1969 c-4 -6 -5 -12 -2 -15 2 -3 7 2 10 11 7 17 1 20 -8 4z"/>
<path d="M4030 1959 c0 -5 5 -7 10 -4 6 3 10 8 10 11 0 2 -4 4 -10 4 -5 0 -10
-5 -10 -11z"/>
<path d="M4075 1959 c-11 -16 -1 -19 13 -3 7 8 8 14 3 14 -5 0 -13 -5 -16 -11z"/>
<path d="M4082 1925 c-6 -14 -10 -25 -8 -25 2 0 11 11 20 25 9 14 13 25 8 25
-5 0 -14 -11 -20 -25z"/>
<path d="M4246 1934 c-5 -14 -4 -15 9 -4 17 14 19 20 6 20 -5 0 -12 -7 -15
-16z"/>
<path d="M4380 1815 c-13 -13 -27 -23 -33 -22 -5 1 -12 -4 -14 -10 -7 -19 10
-16 34 6 20 19 21 19 32 -2 l11 -22 -5 22 c-4 14 0 25 11 31 14 8 14 10 1 15
-8 3 -24 -5 -37 -18z"/>
<path d="M1225 1810 c-3 -5 -3 -15 1 -22 5 -7 3 -8 -6 -3 -9 6 -11 4 -5 -5 5
-9 4 -11 -3 -6 -8 5 -10 2 -6 -9 6 -14 8 -14 19 1 6 9 17 14 23 10 6 -3 14 -2
17 4 4 6 3 10 -2 9 -27 -5 -35 1 -23 16 8 9 9 15 2 15 -6 0 -14 -4 -17 -10z"/>
<path d="M4430 1810 c-8 -5 -12 -12 -9 -15 4 -3 12 1 19 10 14 17 11 19 -10 5z"/>
<path d="M1191 1796 c-10 -11 -10 -19 -1 -33 9 -14 10 -14 7 -2 -3 9 0 22 6
28 6 6 8 13 5 16 -3 3 -11 -1 -17 -9z"/>
<path d="M896 1787 c3 -10 9 -15 12 -12 3 3 0 11 -7 18 -10 9 -11 8 -5 -6z"/>
<path d="M4227 1779 c7 -7 15 -10 18 -7 3 3 -2 9 -12 12 -14 6 -15 5 -6 -5z"/>
<path d="M4297 1773 c10 -3 10 -10 2 -26 -10 -21 -9 -21 5 -3 16 20 13 37 -7
35 -9 0 -9 -2 0 -6z"/>
<path d="M4371 1771 c-8 -5 -9 -11 -3 -15 5 -3 12 1 16 9 6 17 6 18 -13 6z"/>
<path d="M1400 1759 c0 -5 5 -7 10 -4 6 3 10 8 10 11 0 2 -4 4 -10 4 -5 0 -10
-5 -10 -11z"/>
<path d="M4260 1766 c0 -2 7 -7 16 -10 8 -3 12 -2 9 4 -6 10 -25 14 -25 6z"/>
<path d="M1373 1735 c-3 -9 -3 -18 -1 -21 3 -3 8 4 11 16 6 23 -1 27 -10 5z"/>
<path d="M4146 1742 c-3 -5 1 -9 9 -9 8 0 15 4 15 9 0 4 -4 8 -9 8 -6 0 -12
-4 -15 -8z"/>
<path d="M4215 1740 c-3 -5 -1 -10 4 -10 6 0 11 5 11 10 0 6 -2 10 -4 10 -3 0
-8 -4 -11 -10z"/>
<path d="M1314 1728 c10 -6 22 -6 26 -2 5 5 -3 10 -18 11 -22 1 -24 0 -8 -9z"/>
<path d="M4065 1719 c-6 -8 -4 -10 5 -4 10 6 12 4 6 -11 -6 -15 -5 -17 5 -6 9
9 10 15 2 23 -8 8 -13 7 -18 -2z"/>
<path d="M4111 1707 c-8 -10 -7 -14 2 -14 8 0 14 6 14 14 0 7 -1 13 -2 13 -2
0 -8 -6 -14 -13z"/>
<path d="M4013 1695 c-3 -9 -3 -19 1 -22 3 -4 6 1 6 11 0 10 5 14 12 10 7 -4
8 -3 4 4 -10 16 -15 15 -23 -3z"/>
<path d="M1083 1684 c8 -14 -20 -27 -35 -17 -7 3 -8 1 -4 -5 4 -7 1 -12 -6
-12 -9 0 -9 -3 2 -10 21 -14 30 -12 30 5 0 8 5 15 11 15 6 0 8 -8 5 -17 -4
-13 -1 -12 13 5 12 14 21 18 23 10 3 -8 6 -6 10 4 5 11 2 15 -10 13 -9 -1 -23
3 -31 9 -11 8 -13 8 -8 0z"/>
<path d="M1190 1660 c0 -5 5 -10 11 -10 5 0 7 5 4 10 -3 6 -8 10 -11 10 -2 0
-4 -4 -4 -10z"/>
<path d="M1274 1662 c3 -5 0 -13 -6 -15 -9 -4 -10 -6 -1 -6 17 -1 25 16 12 25
-7 4 -9 3 -5 -4z"/>
<path d="M1136 1645 c-3 -8 -1 -15 4 -15 6 0 10 7 10 15 0 8 -2 15 -4 15 -2 0
-6 -7 -10 -15z"/>
<path d="M1171 1644 c0 -11 3 -14 6 -6 3 7 2 16 -1 19 -3 4 -6 -2 -5 -13z"/>
<path d="M1217 1646 c-4 -9 -1 -15 6 -13 7 1 11 -4 9 -11 -1 -8 2 -11 8 -7 8
5 7 12 -2 23 -7 10 -13 18 -14 20 -1 2 -4 -4 -7 -12z"/>
<path d="M4013 1647 c0 -7 9 -13 19 -13 10 0 18 1 18 3 0 1 -8 7 -18 12 -13 7
-19 6 -19 -2z"/>
<path d="M1297 1635 c-4 -8 -3 -16 1 -19 4 -3 9 4 9 15 2 23 -3 25 -10 4z"/>
<path d="M1106 1623 c-6 -14 -5 -15 5 -6 7 7 10 15 7 18 -3 3 -9 -2 -12 -12z"/>
<path d="M986 1611 c-15 -17 -15 -19 -1 -25 10 -3 14 -2 10 5 -4 5 -1 16 5 24
18 22 6 18 -14 -4z"/>
<path d="M1016 1613 c-8 -20 -8 -23 5 -23 5 0 8 4 4 9 -3 5 5 11 17 13 l23 3
-22 7 c-14 4 -24 1 -27 -9z"/>
<path d="M3979 1593 c-13 -16 -12 -17 4 -4 9 7 17 15 17 17 0 8 -8 3 -21 -13z"/>
<path d="M955 1570 c-3 -5 -1 -10 4 -10 6 0 11 5 11 10 0 6 -2 10 -4 10 -3 0
-8 -4 -11 -10z"/>
<path d="M1070 1560 c0 -5 5 -10 11 -10 5 0 7 5 4 10 -3 6 -8 10 -11 10 -2 0
-4 -4 -4 -10z"/>
<path d="M3989 1538 c7 -9 9 -23 5 -30 -6 -10 -4 -11 7 0 11 10 10 15 -6 30
-17 15 -18 15 -6 0z"/>
<path d="M3933 1525 c0 -8 4 -12 9 -9 5 3 6 10 3 15 -9 13 -12 11 -12 -6z"/>
<path d="M3935 1490 c-4 -6 -12 -7 -18 -4 -7 4 -9 4 -5 -1 4 -4 2 -15 -4 -24
-7 -9 0 -5 15 8 15 14 27 26 27 28 0 7 -9 3 -15 -7z"/>
<path d="M3955 1449 c-4 -6 -5 -12 -2 -15 2 -3 7 2 10 11 7 17 1 20 -8 4z"/>
<path d="M3856 1442 c-3 -5 1 -9 9 -9 8 0 12 4 9 9 -3 4 -7 8 -9 8 -2 0 -6 -4
-9 -8z"/>
<path d="M3860 1406 c0 -2 8 -10 18 -17 15 -13 16 -12 3 4 -13 16 -21 21 -21
13z"/>
<path d="M3829 1363 c-13 -16 -12 -17 4 -4 16 13 21 21 13 21 -2 0 -10 -8 -17
-17z"/>
<path d="M3813 1312 c-1 -22 0 -24 9 -8 6 10 6 22 2 26 -5 5 -10 -3 -11 -18z"/>
<path d="M3726 1262 c-3 -5 1 -9 9 -9 8 0 12 4 9 9 -3 4 -7 8 -9 8 -2 0 -6 -4
-9 -8z"/>
<path d="M3656 1233 c-6 -14 -5 -15 5 -6 7 7 10 15 7 18 -3 3 -9 -2 -12 -12z"/>
<path d="M3690 1239 c0 -5 5 -7 10 -4 6 3 10 8 10 11 0 2 -4 4 -10 4 -5 0 -10
-5 -10 -11z"/>
<path d="M3619 1218 c-5 -18 -6 -38 -1 -34 7 8 12 36 6 36 -2 0 -4 -1 -5 -2z"/>
<path d="M3656 1195 c-9 -26 -7 -32 5 -12 6 10 9 21 6 23 -2 3 -7 -2 -11 -11z"/>
<path d="M3560 1140 c-12 -7 -10 -9 7 -7 12 0 19 5 17 9 -6 10 -6 10 -24 -2z"/>
<path d="M3490 1119 c0 -5 5 -7 10 -4 6 3 10 8 10 11 0 2 -4 4 -10 4 -5 0 -10
-5 -10 -11z"/>
<path d="M3520 1100 c-12 -7 -10 -9 7 -7 12 0 19 5 17 9 -6 10 -6 10 -24 -2z"/>
<path d="M3375 1060 c-3 -5 -1 -10 4 -10 6 0 11 5 11 10 0 6 -2 10 -4 10 -3 0
-8 -4 -11 -10z"/>
<path d="M3330 1019 c0 -5 5 -7 10 -4 6 3 10 8 10 11 0 2 -4 4 -10 4 -5 0 -10
-5 -10 -11z"/>
<path d="M3376 1018 c3 -5 10 -6 15 -3 13 9 11 12 -6 12 -8 0 -12 -4 -9 -9z"/>
<path d="M3177 955 c-4 -8 -3 -16 1 -19 4 -3 9 4 9 15 2 23 -3 25 -10 4z"/>
<path d="M3336 953 c-6 -14 -5 -15 5 -6 7 7 10 15 7 18 -3 3 -9 -2 -12 -12z"/>
<path d="M3055 900 c-3 -5 -1 -10 4 -10 6 0 11 5 11 10 0 6 -2 10 -4 10 -3 0
-8 -4 -11 -10z"/>
<path d="M2926 798 c3 -4 9 -8 15 -8 5 0 9 4 9 8 0 5 -7 9 -15 9 -8 0 -12 -4
-9 -9z"/>
</g>
</svg>
